<svg xmlns="http://www.w3.org/2000/svg" viewBox="0 0 142 30" xmlns:xlink="http://www.w3.org/1999/xlink"><defs><path id="a" d="M0 29.82h141.416V.104H0z"/></defs><g fill="none" fill-rule="evenodd"><path fill="#FF574A" d="M66.24 24.536h-3.368l1.716-4.502 1.652 4.502zm-.617-6.755h-2.07L58.91 29.328h2.162l1.245-3.248h4.51l1.263 3.247h2.143l-4.59-11.5-.02-.046z"/><path fill="#00324A" d="M61.12 12.212h2.023V.652H61.12"/><g transform="translate(0 .007)"><path fill="#00324A" d="M76.85 12.34c-.297 0-2.252-.074-2.252-2.495v-5.01h-1.16V3.268h1.16V.646h1.988v2.622h2.154v1.567h-2.154v4.868c.02.29.11.5.27.628.162.133.36.197.604.197 0 0 .42.046 1.012-.385l.78 1.425s-.765.773-2.402.773zM101.374 6.87c.23-.58.607-1.035 1.134-1.35.535-.32 1.112-.493 1.805-.517l.065-.002V3.214s-.175-.055-.49-.03c-.583.05-1.097.24-1.586.61-.42.32-.775.737-1.063 1.24V3.267h-1.854v8.938h1.988V6.87zM108.003 10.883c-.485 0-.888-.144-1.2-.428-.308-.282-.465-.636-.465-1.05 0-.453.197-.785.6-1.053.408-.27.942-.37 1.587-.37.33 0 .674.03 1.022.093.33.06.67.113.968.222v.456c0 .73-.508 2.13-2.512 2.13m4.477-.924V6.77c0-1.11-.348-2.03-1.035-2.642-.686-.61-1.657-1.1-2.885-1.1-1.235 0-2.39.323-3.412 1.094l-.048.032.756 1.364s1.098-.84 2.55-.84c.674 0 1.196.168 1.55.5.356.332.536.86.536 1.412v.415c-.885-.238-1.837-.318-2.253-.318-.555 0-3.79.124-3.79 2.868 0 .4.08.778.234 1.122.155.344.37.646.638.897.27.252.625.452 1.016.595.39.14.89.214 1.347.214 1.698 0 2.572-.685 3.076-1.36 0 0 0 .58.47.988.228.198.565.287.986.287.41 0 .834-.096.834-.096V10.5s-.57.127-.57-.54"/><path fill="#FF574A" d="M99.765 26.573c-.068.157-.174.306-.316.443-.146.14-.316.265-.506.37-.19.11-.405.193-.636.25-.6.154-1.188.108-1.696-.127-.314-.146-.592-.35-.83-.608-.236-.258-.426-.567-.564-.917-.138-.35-.208-.736-.208-1.146 0-.423.067-.812.2-1.157.132-.344.317-.647.548-.9.23-.252.506-.45.82-.59.31-.138.633-.21 1.015-.21.45 0 .866.1 1.236.3.368.197.667.476.886.83l.03.047 1.822-.637-.035-.07c-.33-.672-.835-1.216-1.5-1.62-.663-.403-1.465-.607-2.382-.607-.7 0-1.344.124-1.91.367-.568.244-1.06.58-1.462 1-.403.42-.716.915-.932 1.47-.215.556-.324 1.153-.324 1.775 0 .623.112 1.22.333 1.776.22.555.537 1.052.94 1.477.402.427.894.77 1.46 1.018.568.25 1.206.376 1.896.376.94 0 1.768-.216 2.46-.64.693-.427 1.195-.984 1.49-1.656l.032-.07-1.842-.602-.025.057zM130.17 26.573c-.07.157-.175.306-.317.443-.145.14-.315.265-.505.37-.19.11-.405.193-.636.25-.6.154-1.188.108-1.696-.127-.314-.146-.592-.35-.83-.608-.236-.258-.426-.567-.564-.917-.138-.35-.208-.736-.208-1.146 0-.423.068-.812.2-1.157.132-.344.317-.647.548-.9.23-.252.506-.45.82-.59.312-.138.633-.21 1.015-.21.45 0 .866.1 1.236.3.37.197.668.476.887.83l.03.047 1.822-.637-.035-.07c-.33-.672-.835-1.216-1.5-1.62-.663-.403-1.465-.607-2.382-.607-.7 0-1.345.124-1.912.367-.567.244-1.058.58-1.46 1-.404.42-.717.915-.932 1.47-.215.556-.324 1.153-.324 1.775 0 .623.112 1.22.333 1.776.22.555.536 1.052.94 1.477.4.427.893.77 1.46 1.018.567.25 1.205.376 1.895.376.94 0 1.767-.216 2.46-.64.692-.427 1.194-.984 1.49-1.656l.032-.07-1.843-.602-.025.057z"/><mask id="b" fill="#fff"><use xlink:href="#a"/></mask><path fill="#FF574A" d="M102.27 19.47h2v-2.027h-2M102.27 29.316h2v-8.938h-2M119.7 20.226c-.947 0-2.22.338-3.06 1.744v-1.592h-1.82v8.938h1.99v-5.29c.574-1.955 2.1-2.014 2.36-2.014 1.117 0 1.693.85 1.693 2.305v5h1.987V23.97c0-2.954-2.176-3.744-3.15-3.744" mask="url(#b)"/><path fill="#00324A" d="M69.6 3.116c-.947 0-2.22.338-3.06 1.744V3.268h-1.82v8.938h1.99v-5.29c.574-1.955 2.1-2.014 2.358-2.014 1.118 0 1.694.85 1.694 2.305v5h1.988V6.86c0-2.954-2.177-3.744-3.15-3.744M86.433 7.05h-5.105c.037-.32.122-.623.253-.897.14-.294.327-.546.554-.75.226-.205.492-.368.79-.483.592-.23 1.35-.233 1.954 0 .422.162 1.508.816 1.555 2.13m1.69-1.058c-.2-.55-.494-1.04-.873-1.453-.38-.415-.91-.752-1.47-1-.563-.25-1.198-.377-1.89-.377-.7 0-1.343.124-1.91.367-.568.245-1.06.584-1.462 1.01-.402.424-.718.924-.94 1.485-.22.56-.333 1.16-.333 1.784 0 .622.113 1.22.334 1.774.22.556.536 1.05.938 1.47.403.42.894.756 1.46 1 .57.243 1.206.367 1.897.367.94 0 1.838-.215 2.572-.64.735-.426 1.27-.982 1.588-1.654l.034-.072-1.82-.524-.025.053c-.09.188-.213.33-.368.483-.157.155-.34.288-.54.396-.202.108-.427.192-.667.248-.57.135-1.156.112-1.68-.085-.3-.113-.573-.278-.81-.49-.235-.21-.43-.465-.58-.755-.138-.27-.227-.56-.265-.914h7.054l.007-.058c.01-.08.02-.18.032-.298.01-.122.016-.252.016-.385 0-.6-.102-1.183-.302-1.733" mask="url(#b)"/><path fill="#FF574A" d="M112.2 24.113h-5.105c.038-.32.123-.623.254-.897.14-.294.325-.546.55-.75.228-.205.493-.368.79-.483.594-.23 1.35-.232 1.956 0 .422.162 1.508.816 1.554 2.13m1.692-1.058c-.2-.55-.495-1.04-.875-1.453-.38-.414-.91-.75-1.47-1-.563-.25-1.198-.376-1.888-.376-.702 0-1.346.124-1.913.368s-1.06.583-1.46 1.008c-.404.425-.72.925-.94 1.486-.222.56-.334 1.16-.334 1.784 0 .623.112 1.22.333 1.775.22.556.537 1.05.94 1.47.402.42.894.756 1.46 1 .568.244 1.206.367 1.896.367.94 0 1.84-.215 2.573-.64.735-.427 1.27-.983 1.587-1.655l.035-.073-1.82-.524-.024.053c-.09.19-.213.33-.37.483-.155.154-.337.287-.538.395-.202.108-.427.192-.667.248-.57.135-1.157.112-1.68-.085-.302-.113-.574-.278-.81-.49-.236-.21-.43-.465-.58-.755-.138-.27-.227-.56-.266-.913h7.055l.008-.06c.01-.08.02-.178.032-.297.01-.122.016-.252.016-.385 0-.6-.1-1.183-.3-1.733M139.422 24.113h-5.105c.038-.32.123-.623.254-.897.14-.294.327-.546.553-.75.227-.205.492-.368.79-.483.593-.23 1.35-.232 1.955 0 .422.162 1.508.816 1.554 2.13m1.692-1.058c-.2-.55-.495-1.04-.875-1.453-.38-.414-.91-.75-1.472-1-.562-.25-1.197-.376-1.887-.376-.7 0-1.344.124-1.91.368-.568.244-1.06.583-1.462 1.008-.403.425-.72.925-.94 1.486-.22.56-.333 1.16-.333 1.784 0 .623.112 1.22.333 1.775.22.556.537 1.05.94 1.47.402.42.894.756 1.46 1 .568.244 1.206.367 1.896.367.94 0 1.84-.215 2.573-.64.735-.427 1.27-.983 1.587-1.655l.035-.073-1.82-.524-.025.053c-.09.19-.213.33-.37.483-.155.154-.337.287-.538.395-.202.108-.427.192-.667.248-.57.135-1.157.112-1.68-.085-.3-.113-.574-.278-.81-.49-.236-.21-.43-.465-.58-.755-.138-.27-.227-.56-.266-.913h7.055l.007-.06c.01-.08.02-.178.032-.297.01-.122.016-.252.016-.385 0-.6-.102-1.183-.302-1.733" mask="url(#b)"/><path fill="#00324A" d="M95.902 8.877c-.664 1.62-1.975 1.7-2.352 1.7-.378 0-1.645-.052-2.353-1.7-.142-.33-.203-.688-.203-1.08 0-.374.06-.74.18-1.09.12-.35.29-.67.506-.948.215-.278.48-.504.788-.672.305-.168.695-.253 1.082-.253.386 0 .777.085 1.082.253.307.168.572.394.788.67.216.28.386.6.506.95s.18.715.18 1.088c0 .393-.068.748-.204 1.08zm.386-5.61v1.46c-.32-.494-.74-.884-1.216-1.152-.542-.304-1.18-.46-1.896-.46-.613 0-1.18.125-1.688.37-.505.244-.946.578-1.31.992-.362.414-.65.908-.853 1.47-.204.56-.307 1.165-.307 1.798 0 .6.1 1.18.3 1.723.196.543.478 1.032.835 1.452.36.42.793.757 1.293 1 .5.246 1.06.37 1.663.37.613 0 1.282-.14 1.873-.42.518-.244.92-.586 1.27-1.102v1.257c0 1.666-1.233 2.456-2.943 2.456-1.912 0-3-1.278-3-1.278l-1.1 1.334s1.516 1.71 4.1 1.71c.666 0 1.314-.093 1.898-.274.586-.18 1.112-.437 1.533-.794 1.113-.942 1.384-2.11 1.384-3.466V3.268h-1.836z" mask="url(#b)"/><path fill="#FF574A" d="M71.862 24.857c0-.373.066-.74.197-1.09.13-.35.31-.637.54-.906.225-.266.497-.483.808-.644.308-.16.652-.24 1.023-.24.333.012.648.088.936.223.32.15.608.356.855.614.25.257.446.535.586.885.14.348.213.943.213 1.312 0 .372-.067.74-.197 1.09-.13.35-.31.668-.536.942-.224.272-.494.493-.802.657-.306.163-.645.245-1.016.245-.332-.012-.653-.09-.942-.227-.323-.153-.613-.363-.863-.626-.25-.262-.448-.572-.59-.923-.14-.35-.213-.944-.213-1.313zm7.506 2.74c-.407 0-.505-.28-.505-.656v-9.493h-1.998v4.297c-.294-.375-.68-.693-1.15-.948-.548-.298-1.19-.446-1.907-.446-.58 0-1.12.122-1.606.363-.484.24-.91.572-1.268.984-.358.413-.64.896-.838 1.435-.198.54-.3 1.112-.3 1.735 0 .646.107 1.258.317 1.818.21.56.506 1.06.88 1.48.376.42.825.756 1.337 1 .512.246 1.078.37 1.68.37 1.36 0 2.588-.644 3.14-1.674l.022.294c.023.34.164.702.417.923.25.22.574.318.963.334.644.026.883-.168.883-.168v-1.64l-.068-.004z" mask="url(#b)"/><path fill="#00324A" d="M117.29 10.53c-.565.093-.94-.024-1.087-.13-.164-.118-.248-.34-.27-.628V.646h-1.987v9.2c0 2.42 1.956 2.494 2.252 2.494.422 0 .784-.052 1.092-.128V10.53z" mask="url(#b)"/><path fill="#FF574A" d="M0 29.422h5.774v-8.094H0M49.328 21.328c-.14.637-.45 1.22-.91 1.696-.633.653-1.478 1.033-2.373 1.07h-.167c-.837 0-1.652-.302-2.295-.853-.583-.5-.984-1.173-1.15-1.914h-5.786c.05.623.202 1.27.21 1.297.937 4.12 4.544 7.078 8.77 7.19 0 0 .184.007.262.007 4.814 0 8.823-3.716 9.208-8.492h-5.77zM7.166 29.423h5.91l3.487-8.095h-5.925M34.58 21.328h-5.833l3.386 8.095h5.908M92.3 24.578c-.186-.362-.463-.672-.797-.92-.332-.247-.743-.46-1.223-.63-.477-.17-1.015-.325-1.61-.463-.484-.116-.913-.225-1.274-.325-.36-.1-.66-.215-.897-.344-.233-.126-.407-.274-.516-.44-.11-.163-.164-.39-.164-.64 0-.45.173-.795.53-1.05.356-.253.925-.382 1.69-.382.346 0 .69.035 1.02.105.333.07.64.16.918.27.277.11.522.23.727.353.15.092.388.263.544.39l.92-1.635-.048-.035c-.52-.372-1.13-.688-1.818-.94-.69-.25-1.46-.38-2.263-.38-.613 0-1.19.08-1.716.232-.528.155-.992.386-1.38.69-.39.304-.7.685-.926 1.132-.225.448-.34.966-.34 1.54 0 .464.078.866.23 1.195.155.328.375.62.665.863.29.244.656.516 1.093.682.43.164.944.323 1.524.47.5.128.953.25 1.35.366.39.115.727.245.997.385.267.138.474.3.617.482.14.18.21.408.21.667 0 .44-.185.76-.566.985-.384.226-.94.34-1.654.34-.447 0-.882-.048-1.293-.142-.414-.096-.804-.213-1.158-.348-.355-.135-.67-.285-.934-.445-.22-.13-.508-.338-.682-.48l-.908 1.69.045.035c.677.514 1.458.91 2.31 1.178.848.268 1.74.403 2.654.403.608 0 1.182-.063 1.707-.19.527-.126.996-.327 1.395-.597.4-.27.72-.628.953-1.06.232-.433.35-.954.35-1.55 0-.53-.096-1.095-.282-1.458" mask="url(#b)"/><path fill="#00324A" d="M4.63.453H1.143C.512.453 0 .966 0 1.596v19.732h5.773V1.596C5.773.966 5.26.453 4.63.453M53.11 14.808c-1.28-1.603-3.08-2.747-5.057-3.218 0 0-2.676-.596-3.276-.77-1.087-.31-1.848-1.315-1.848-2.448 0-1.404 1.14-2.546 2.544-2.546 1.21 0 2.258.857 2.495 2.037.063.313.244.583.51.76.262.174.59.238.896.176l3.268-.66c.313-.063.582-.243.76-.51.173-.26.237-.588.175-.896-.774-3.842-4.183-6.63-8.106-6.63-4.558 0-8.267 3.71-8.267 8.268 0 3.752 2.502 7.074 6.08 7.974l3.425.806c.755.18 1.44.617 1.93 1.23.502.628.768 1.387.768 2.195 0 .175-.014.353-.04.527 0 0-.024.15-.04.224h5.773l.01-.183c.013-.194.02-.385.02-.568 0-2.09-.72-4.14-2.022-5.77M23.423.482H21.82c-1.38 0-2.627.823-3.17 2.09L10.64 21.33h5.925l6.04-14.02 3.733 8.518H22.45c-1.28 0-1.888.596-2.272 1.512l-1.674 3.99H34.58L26.59 2.576c-.54-1.27-1.787-2.094-3.167-2.094" mask="url(#b)"/></g></g></svg>